<?xml version="1.0" standalone="no"?>
<!DOCTYPE svg PUBLIC "-//W3C//DTD SVG 20010904//EN"
 "http://www.w3.org/TR/2001/REC-SVG-20010904/DTD/svg10.dtd">
<svg version="1.0" xmlns="http://www.w3.org/2000/svg"
 width="675.000000pt" height="675.000000pt" viewBox="0 0 675.000000 675.000000"
 preserveAspectRatio="xMidYMid meet">
<metadata>
Created by potrace 1.14, written by Peter Selinger 2001-2017
</metadata>
<g transform="translate(0.000000,675.000000) scale(0.100000,-0.100000)"
fill="#000000" stroke="none">
<path d="M3105 5679 c-149 -48 -378 -122 -510 -165 -132 -43 -242 -79 -245
-79 -3 0 -41 -13 -85 -27 -75 -25 -566 -184 -775 -251 -95 -30 -123 -44 -116
-56 2 -3 7 -57 11 -119 3 -62 8 -123 10 -135 2 -12 6 -49 9 -82 3 -33 8 -69
10 -80 2 -11 7 -47 11 -80 4 -32 9 -68 11 -79 2 -11 6 -36 9 -56 3 -20 7 -47
10 -60 3 -14 10 -52 16 -85 13 -76 56 -269 69 -315 6 -19 26 -93 45 -165 30
-111 87 -291 115 -360 4 -11 22 -60 40 -110 17 -49 43 -121 57 -160 28 -75
221 -459 253 -505 11 -16 20 -31 20 -34 0 -11 102 -171 111 -174 5 -2 9 -9 9
-16 0 -12 21 -43 119 -176 201 -271 492 -552 751 -725 41 -28 77 -52 80 -55 6
-6 18 -13 140 -84 l95 -55 75 41 c324 177 616 425 914 778 95 113 273 379 376
565 148 265 325 690 400 960 88 318 156 632 185 860 4 28 8 66 11 85 3 19 6
49 9 66 11 87 19 199 19 283 l1 94 -90 29 c-321 104 -426 138 -735 238 -190
61 -361 116 -380 122 -19 6 -44 14 -55 19 -26 10 -272 90 -288 93 -7 2 -19 6
-27 9 -8 3 -46 15 -85 27 -38 12 -79 25 -90 29 -11 5 -70 24 -130 43 l-110 35
-270 -88z m282 -3635 c-3 -3 -12 -4 -19 -1 -8 3 -5 6 6 6 11 1 17 -2 13 -5z
m76 -1 c-7 -2 -19 -2 -25 0 -7 3 -2 5 12 5 14 0 19 -2 13 -5z"/>
</g>
</svg>
